# xmcd
#
# Track frame offsets:
# 150
# 12809
# 28811
# 48396
# 71035
# 85507
# 99938
# 114421
# 136821
# 149131
# 173053
#
# Disc length: 2663 seconds
#
#
# Revision: 0
# Processed by: cddbd v1.5.1PL0 Copyright (c) Steve Scherf et al.
# Submitted via: FreeRIP 2.92 
#
DISCID=8d0a650b
DTITLE=Mark Dufresne - There's A Song In There
DYEAR=1999
DGENRE=Blues
TTITLE0=Seasoned Veteran
TTITLE1=The King, The Man, The One
TTITLE2=Two For The Price Of Ten
TTITLE3=Born To Lose
TTITLE4=Squeaky Clean
TTITLE5=A Song In There
TTITLE6=Call My Name
TTITLE7=Take It All
TTITLE8=The Deal You Get
TTITLE9=Tonight, Twice
TTITLE10=Out The Door
EXTD=
EXTT0=
EXTT1=
EXTT2=
EXTT3=
EXTT4=
EXTT5=
EXTT6=
EXTT7=
EXTT8=
EXTT9=
EXTT10=
PLAYORDER=
